<?xml version="1.0" standalone="no"?><!DOCTYPE svg PUBLIC "-//W3C//DTD SVG 1.1//EN" "http://www.w3.org/Graphics/SVG/1.1/DTD/svg11.dtd"><svg t="1717658956777" class="icon" viewBox="0 0 1024 1024" version="1.1" xmlns="http://www.w3.org/2000/svg" p-id="19589" xmlns:xlink="http://www.w3.org/1999/xlink" width="200" height="200"><path d="M777.770667 1024a245.888 245.888 0 0 1-245.802667-245.888v-222.378667a23.466667 23.466667 0 0 1 23.466667-23.466666h222.336a245.888 245.888 0 0 1 0 491.733333z m-198.912-444.8v198.912a198.912 198.912 0 1 0 198.912-198.912z m-23.424 198.912z m-309.930667 245.077333a245.376 245.376 0 1 1 0-490.666666h221.866667a23.424 23.424 0 0 1 23.424 23.466666v221.866667a245.674667 245.674667 0 0 1-245.290667 245.333333z m0-443.733333a198.485333 198.485333 0 1 0 198.528 198.485333v-198.485333z m532.352-88.362667h-221.866667a23.466667 23.466667 0 0 1-23.466666-23.466666v-221.866667a245.333333 245.333333 0 1 1 245.418666 245.461333z m-198.485333-46.933333h198.4a198.485333 198.485333 0 1 0-198.4-198.528z m-111.872 46.933333h-221.866667a245.504 245.504 0 1 1 245.418667-245.461333v221.866667a23.424 23.424 0 0 1-23.594667 23.424z m-221.866667-444.032a198.570667 198.570667 0 0 0 0 397.098667h198.442667V245.632a198.570667 198.570667 0 0 0-198.528-198.570667z" fill="#ffffff" p-id="19590"></path></svg>