<?xml version="1.0" standalone="no"?><!DOCTYPE svg PUBLIC "-//W3C//DTD SVG 1.1//EN" "http://www.w3.org/Graphics/SVG/1.1/DTD/svg11.dtd"><svg t="1717657833719" class="icon" viewBox="0 0 1024 1024" version="1.1" xmlns="http://www.w3.org/2000/svg" p-id="15210" xmlns:xlink="http://www.w3.org/1999/xlink" width="200" height="200"><path d="M517.238154 157.538462c71.089231 0 128 59.352615 131.505231 132.726153l0.157538 7.168v31.113847a35.643077 35.643077 0 0 1-71.010461 4.174769l-0.236308-4.135385v-31.113846c0-36.627692-25.048615-65.614769-55.532308-68.450462l-4.883692-0.196923H239.064615c-46.631385 0-85.937231 40.723692-88.891077 93.380923l-0.157538 6.380308v406.212923c0 53.563077 37.494154 96.374154 83.495385 99.603693l5.55323 0.157538h249.462154c46.631385 0 85.937231-40.723692 88.891077-93.380923l0.196923-6.380308a35.643077 35.643077 0 1 1 71.286154 0c0 91.254154-67.229538 166.754462-152.969846 170.850462l-7.404308 0.196923H239.064615c-86.764308 0-156.356923-72.979692-160.17723-163.249231L78.769231 734.798769V328.585846c0-91.254154 67.229538-166.754462 152.969846-170.850461L239.064615 157.538462h278.134154z m224.216615 220.829538l3.387077 2.914462 175.261539 168.211692-175.261539 168.251077a35.643077 35.643077 0 0 1-52.381538-48.128l3.032615-3.268923 84.519385-81.211077H298.496a35.643077 35.643077 0 0 1-4.135385-71.010462l4.135385-0.236307 481.516308-0.039385-84.519385-81.171692a35.643077 35.643077 0 0 1-3.938461-46.946462l2.914461-3.426461a35.643077 35.643077 0 0 1 46.985846-3.938462z" fill="#526ADE" p-id="15211"></path></svg>