<?xml version="1.0" standalone="no"?><!DOCTYPE svg PUBLIC "-//W3C//DTD SVG 1.1//EN" "http://www.w3.org/Graphics/SVG/1.1/DTD/svg11.dtd"><svg t="1717659026923" class="icon" viewBox="0 0 1024 1024" version="1.1" xmlns="http://www.w3.org/2000/svg" p-id="24285" xmlns:xlink="http://www.w3.org/1999/xlink" width="200" height="200"><path d="M910.222222 113.777778a56.888889 56.888889 0 0 1 56.888889 56.888889v568.888889a56.888889 56.888889 0 0 1-56.888889 56.888888h-260.892444l-16.668445 16.497778-80.440889 80.782222a57.287111 57.287111 0 0 1-80.440888 0l-80.440889-80.782222-16.668445-16.497778H113.777778a56.888889 56.888889 0 0 1-56.888889-56.888888V170.666667a56.888889 56.888889 0 0 1 56.888889-56.888889h796.444444m0-56.888889H113.777778a113.777778 113.777778 0 0 0-113.777778 113.777778v568.888889a113.777778 113.777778 0 0 0 113.777778 113.777777h237.283555l80.440889 80.213334a113.208889 113.208889 0 0 0 160.881778 0L672.824889 853.333333H910.222222a113.777778 113.777778 0 0 0 113.777778-113.777777V170.666667a113.777778 113.777778 0 0 0-113.777778-113.777778zM341.333333 455.111111a56.888889 56.888889 0 1 1-56.888889-56.888889 56.888889 56.888889 0 0 1 56.888889 56.888889z m227.555556 0a56.888889 56.888889 0 1 1-56.888889-56.888889 56.888889 56.888889 0 0 1 56.888889 56.888889z m227.555555 0a56.888889 56.888889 0 1 1-56.888888-56.888889 56.888889 56.888889 0 0 1 56.888888 56.888889z" fill="#ffffff" p-id="24286"></path></svg>