<?xml version="1.0" standalone="no"?><!DOCTYPE svg PUBLIC "-//W3C//DTD SVG 1.1//EN" "http://www.w3.org/Graphics/SVG/1.1/DTD/svg11.dtd"><svg t="1717657739910" class="icon" viewBox="0 0 1024 1024" version="1.1" xmlns="http://www.w3.org/2000/svg" p-id="13129" xmlns:xlink="http://www.w3.org/1999/xlink" width="200" height="200"><path d="M664.512 180.992a204.48 204.48 0 0 1 3.392 408.96h-3.392v-64a140.48 140.48 0 1 0-56.32-269.184l-0.96 0.384-26.176-58.432a203.904 203.904 0 0 1 83.456-17.728z" fill="#526ADE" p-id="13130"></path><path d="M664 526.016a286.528 286.528 0 0 1 286.976 281.28v4.672h-64a222.464 222.464 0 0 0-219.264-221.952h-3.712v-64z" fill="#526ADE" p-id="13131"></path><path d="M427.008 118.016a240.768 240.768 0 0 0-241.024 240.512 240.768 240.768 0 0 0 241.024 240.448 240.768 240.768 0 0 0 241.024-240.448 240.768 240.768 0 0 0-241.024-240.512z m0 64a176.768 176.768 0 0 1 177.024 176.512 176.768 176.768 0 0 1-177.024 176.448 176.768 176.768 0 0 1-177.024-176.448 176.768 176.768 0 0 1 177.024-176.512z" fill="#526ADE" p-id="13132"></path><path d="M427.008 535.04a340.032 340.032 0 0 1 339.968 334.336v5.632h-64A276.032 276.032 0 0 0 151.04 870.4v4.48h-64A340.032 340.032 0 0 1 426.944 535.04z" fill="#526ADE" p-id="13133"></path></svg>